Barlow-Bold.ufo
<glyph name="period" format="1">
  <advance width="263"/>
  <unicode hex="002E"/>
  <outline>
    <contour>
      <point x="196" y="-8"/>
      <point x="243" y="39"/>
      <point x="243" y="97" type="curve" smooth="yes"/>
      <point x="243" y="155"/>
      <point x="188" y="201"/>
      <point x="131" y="201" type="curve" smooth="yes"/>
      <point x="75" y="201"/>
      <point x="20" y="155"/>
      <point x="20" y="97" type="curve" smooth="yes"/>
      <point x="20" y="39"/>
      <point x="66" y="-8"/>
      <point x="131" y="-8" type="curve" smooth="yes"/>
    </contour>
  </outline>
</glyph>
<glyph name="three" format="1">
  <advance width="556"/>
  <unicode hex="0033"/>
  <outline>
    <contour>
      <point x="385" y="-8"/>
      <point x="472" y="48"/>
      <point x="508" y="135" type="curve" smooth="yes"/>
      <point x="520" y="164"/>
      <point x="529" y="195"/>
      <point x="529" y="237" type="curve" smooth="yes"/>
      <point x="529" y="274"/>
      <point x="522" y="307"/>
      <point x="509" y="337" type="curve" smooth="yes"/>
      <point x="481" y="400"/>
      <point x="428" y="447"/>
      <point x="334" y="447" type="curve"/>
      <point x="347" y="415" type="line"/>
      <point x="517" y="539" type="line"/>
      <point x="517" y="700" type="line"/>
      <point x="41" y="700" type="line"/>
      <point x="41" y="539" type="line"/>
      <point x="279" y="539" type="line"/>
      <point x="108" y="427" type="line"/>
      <point x="207" y="307" type="line"/>
      <point x="235" y="328"/>
      <point x="252" y="336"/>
      <point x="274" y="336" type="curve" smooth="yes"/>
      <point x="296" y="336"/>
      <point x="314" y="325"/>
      <point x="324" y="306" type="curve" smooth="yes"/>
      <point x="333" y="289"/>
      <point x="339" y="267"/>
      <point x="339" y="242" type="curve" smooth="yes"/>
      <point x="339" y="222"/>
      <point x="334" y="198"/>
      <point x="324" y="181" type="curve" smooth="yes"/>
      <point x="313" y="163"/>
      <point x="297" y="153"/>
      <point x="275" y="153" type="curve" smooth="yes"/>
      <point x="253" y="153"/>
      <point x="236" y="162"/>
      <point x="225" y="181" type="curve" smooth="yes"/>
      <point x="216" y="197"/>
      <point x="211" y="221"/>
      <point x="211" y="240" type="curve"/>
      <point x="21" y="240" type="line"/>
      <point x="21" y="205"/>
      <point x="27" y="169"/>
      <point x="41" y="137" type="curve" smooth="yes"/>
      <point x="80" y="48"/>
      <point x="167" y="-8"/>
      <point x="275" y="-8" type="curve" smooth="yes"/>
    </contour>
  </outline>
</glyph>
<glyph name="greater" format="1">
  <advance width="476"/>
  <unicode hex="003E"/>
  <outline>
    <contour>
      <point x="454" y="197" type="line"/>
      <point x="454" y="357" type="line"/>
      <point x="22" y="542" type="line"/>
      <point x="22" y="364" type="line"/>
      <point x="261" y="277" type="line"/>
      <point x="22" y="190" type="line"/>
      <point x="22" y="12" type="line"/>
    </contour>
  </outline>
</glyph>
<glyph name="B" format="1">
  <advance width="615"/>
  <unicode hex="0042"/>
  <outline>
    <contour>
      <point x="323" y="0" type="line" smooth="yes"/>
      <point x="465" y="0"/>
      <point x="582" y="55"/>
      <point x="582" y="200" type="curve" smooth="yes"/>
      <point x="582" y="342"/>
      <point x="478" y="403"/>
      <point x="236" y="403" type="curve"/>
      <point x="39" y="401" type="line"/>
      <point x="39" y="0" type="line"/>
    </contour>
    <contour>
      <point x="227" y="276" type="line"/>
      <point x="324" y="276" type="line" smooth="yes"/>
      <point x="370" y="276"/>
      <point x="394" y="257"/>
      <point x="394" y="220" type="curve" smooth="yes"/>
      <point x="394" y="181"/>
      <point x="370" y="161"/>
      <point x="323" y="161" type="curve" smooth="yes"/>
      <point x="227" y="161" type="line"/>
    </contour>
    <contour>
      <point x="238" y="323" type="line" smooth="yes"/>
      <point x="453" y="321"/>
      <point x="571" y="360"/>
      <point x="571" y="502" type="curve" smooth="yes"/>
      <point x="571" y="650"/>
      <point x="477" y="700"/>
      <point x="314" y="700" type="curve"/>
      <point x="39" y="700" type="line"/>
      <point x="39" y="325" type="line"/>
    </contour>
    <contour>
      <point x="227" y="539" type="line"/>
      <point x="314" y="539" type="line"/>
      <point x="362" y="539"/>
      <point x="387" y="520"/>
      <point x="387" y="484" type="curve" smooth="yes"/>
      <point x="387" y="448"/>
      <point x="362" y="429"/>
      <point x="314" y="429" type="curve"/>
      <point x="227" y="429" type="line"/>
    </contour>
  </outline>
</glyph>
<glyph name="H" format="1">
  <advance width="611"/>
  <unicode hex="0048"/>
  <outline>
    <contour>
      <point x="581" y="0" type="line"/>
      <point x="581" y="700" type="line"/>
      <point x="393" y="700" type="line"/>
      <point x="393" y="0" type="line"/>
    </contour>
    <contour>
      <point x="227" y="0" type="line"/>
      <point x="227" y="700" type="line"/>
      <point x="39" y="700" type="line"/>
      <point x="39" y="0" type="line"/>
    </contour>
    <contour>
      <point x="462" y="274" type="line"/>
      <point x="462" y="435" type="line"/>
      <point x="160" y="435" type="line"/>
      <point x="160" y="274" type="line"/>
    </contour>
    <contour>
      <point x="310" y="506" type="move" name="strokelong"/>
    </contour>
  </outline>
</glyph>
<glyph name="M" format="1">
  <advance width="714"/>
  <unicode hex="004D"/>
  <outline>
    <contour>
      <point x="227" y="0" type="line"/>
      <point x="227" y="418" type="line"/>
      <point x="307" y="259" type="line"/>
      <point x="407" y="259" type="line"/>
      <point x="487" y="418" type="line"/>
      <point x="487" y="0" type="line"/>
      <point x="675" y="0" type="line"/>
      <point x="675" y="700" type="line"/>
      <point x="492" y="700" type="line"/>
      <point x="357" y="471" type="line"/>
      <point x="222" y="700" type="line"/>
      <point x="39" y="700" type="line"/>
      <point x="39" y="0" type="line"/>
    </contour>
  </outline>
</glyph>
<glyph name="Q" format="1">
  <advance width="605"/>
  <unicode hex="0051"/>
  <outline>
    <contour>
      <point x="466" y="-8"/>
      <point x="575" y="93"/>
      <point x="575" y="245" type="curve" smooth="yes"/>
      <point x="575" y="440" type="line" smooth="yes"/>
      <point x="575" y="601"/>
      <point x="466" y="708"/>
      <point x="302" y="708" type="curve" smooth="yes"/>
      <point x="139" y="708"/>
      <point x="30" y="601"/>
      <point x="30" y="440" type="curve" smooth="yes"/>
      <point x="30" y="245" type="line" smooth="yes"/>
      <point x="30" y="93"/>
      <point x="139" y="-8"/>
      <point x="302" y="-8" type="curve" smooth="yes"/>
    </contour>
    <contour>
      <point x="397" y="-87" type="line"/>
      <point x="397" y="113" type="line"/>
      <point x="209" y="113" type="line"/>
      <point x="209" y="-87" type="line"/>
    </contour>
    <contour>
      <point x="252" y="153"/>
      <point x="218" y="192"/>
      <point x="218" y="250" type="curve" smooth="yes"/>
      <point x="218" y="450" type="line" smooth="yes"/>
      <point x="218" y="508"/>
      <point x="252" y="547"/>
      <point x="302" y="547" type="curve" smooth="yes"/>
      <point x="353" y="547"/>
      <point x="387" y="508"/>
      <point x="387" y="450" type="curve" smooth="yes"/>
      <point x="387" y="250" type="line" smooth="yes"/>
      <point x="387" y="192"/>
      <point x="353" y="153"/>
      <point x="302" y="153" type="curve" smooth="yes"/>
    </contour>
  </outline>
</glyph>
<glyph name="T" format="1">
  <advance width="615"/>
  <unicode hex="0054"/>
  <outline>
    <contour>
      <point x="399" y="0" type="line"/>
      <point x="399" y="689" type="line"/>
      <point x="211" y="689" type="line"/>
      <point x="211" y="0" type="line"/>
    </contour>
    <contour>
      <point x="597" y="538" type="line"/>
      <point x="597" y="700" type="line"/>
      <point x="18" y="700" type="line"/>
      <point x="18" y="538" type="line"/>
    </contour>
    <contour>
      <point x="308" y="700" type="move" name="top"/>
    </contour>
    <contour>
      <point x="304" y="0" type="move" name="bottom"/>
    </contour>
  </outline>
</glyph>
<glyph name="V" format="1">
  <advance width="637"/>
  <unicode hex="0056"/>
  <outline>
    <contour>
      <point x="415" y="0" type="line"/>
      <point x="619" y="700" type="line"/>
      <point x="421" y="700" type="line"/>
      <point x="322" y="248" type="line"/>
      <point x="220" y="700" type="line"/>
      <point x="18" y="700" type="line"/>
      <point x="220" y="0" type="line"/>
    </contour>
  </outline>
</glyph>
<glyph name="W" format="1">
  <advance width="857"/>
  <unicode hex="0057"/>
  <outline>
    <contour>
      <point x="361" y="0" type="line"/>
      <point x="429" y="372" type="line"/>
      <point x="507" y="0" type="line"/>
      <point x="694" y="0" type="line"/>
      <point x="849" y="700" type="line"/>
      <point x="658" y="700" type="line"/>
      <point x="585" y="348" type="line"/>
      <point x="526" y="700" type="line"/>
      <point x="335" y="700" type="line"/>
      <point x="280" y="348" type="line"/>
      <point x="209" y="700" type="line"/>
      <point x="8" y="700" type="line"/>
      <point x="185" y="0" type="line"/>
    </contour>
    <contour>
      <point x="429" y="700" type="move" name="top"/>
    </contour>
  </outline>
</glyph>
<glyph name="c" format="1">
  <advance width="549"/>
  <unicode hex="0063"/>
  <outline>
    <contour>
      <point x="391" y="-8"/>
      <point x="486" y="45"/>
      <point x="521" y="144" type="curve" smooth="yes"/>
      <point x="528" y="164"/>
      <point x="529" y="185"/>
      <point x="529" y="189" type="curve"/>
      <point x="344" y="219" type="line"/>
      <point x="343" y="208"/>
      <point x="342" y="202"/>
      <point x="341" y="199" type="curve" smooth="yes"/>
      <point x="330" y="167"/>
      <point x="308" y="153"/>
      <point x="281" y="153" type="curve" smooth="yes"/>
      <point x="253" y="153"/>
      <point x="234" y="167"/>
      <point x="223" y="193" type="curve" smooth="yes"/>
      <point x="216" y="211"/>
      <point x="212" y="234"/>
      <point x="212" y="262" type="curve" smooth="yes"/>
      <point x="212" y="291"/>
      <point x="216" y="314"/>
      <point x="224" y="331" type="curve" smooth="yes"/>
      <point x="235" y="355"/>
      <point x="254" y="367"/>
      <point x="281" y="367" type="curve" smooth="yes"/>
      <point x="311" y="367"/>
      <point x="334" y="349"/>
      <point x="341" y="327" type="curve" smooth="yes"/>
      <point x="344" y="318"/>
      <point x="346" y="305"/>
      <point x="347" y="298" type="curve"/>
      <point x="531" y="327" type="line"/>
      <point x="531" y="329"/>
      <point x="532" y="349"/>
      <point x="521" y="379" type="curve" smooth="yes"/>
      <point x="491" y="462"/>
      <point x="399" y="528"/>
      <point x="282" y="528" type="curve" smooth="yes"/>
      <point x="170" y="528"/>
      <point x="79" y="471"/>
      <point x="42" y="376" type="curve" smooth="yes"/>
      <point x="31" y="348"/>
      <point x="22" y="310"/>
      <point x="22" y="263" type="curve" smooth="yes"/>
      <point x="22" y="225"/>
      <point x="28" y="185"/>
      <point x="42" y="149" type="curve" smooth="yes"/>
      <point x="80" y="51"/>
      <point x="169" y="-8"/>
      <point x="282" y="-8" type="curve" smooth="yes"/>
    </contour>
    <contour>
      <point x="278" y="528" type="move" name="top"/>
    </contour>
    <contour>
      <point x="278" y="-8" type="move" name="bottom"/>
    </contour>
  </outline>
</glyph>
<glyph name="n" format="1">
  <advance width="552"/>
  <unicode hex="006E"/>
  <outline>
    <contour>
      <point x="221" y="0" type="line"/>
      <point x="221" y="520" type="line"/>
      <point x="33" y="520" type="line"/>
      <point x="33" y="0" type="line"/>
    </contour>
    <component base="n.curve" xOffset="182"/>
    <contour>
      <point x="284" y="520" type="move" name="top"/>
    </contour>
    <contour>
      <point x="279" y="0" type="move" name="bottom"/>
    </contour>
  </outline>
</glyph>
<glyph name="o" format="1">
  <advance width="558"/>
  <unicode hex="006F"/>
  <outline>
    <contour>
      <point x="410" y="-8"/>
      <point x="501" y="69"/>
      <point x="528" y="187" type="curve" smooth="yes"/>
      <point x="533" y="211"/>
      <point x="536" y="236"/>
      <point x="536" y="263" type="curve" smooth="yes"/>
      <point x="536" y="295"/>
      <point x="532" y="324"/>
      <point x="524" y="352" type="curve" smooth="yes"/>
      <point x="493" y="458"/>
      <point x="406" y="528"/>
      <point x="280" y="528" type="curve" smooth="yes"/>
      <point x="155" y="528"/>
      <point x="65" y="459"/>
      <point x="34" y="350" type="curve" smooth="yes"/>
      <point x="26" y="323"/>
      <point x="22" y="293"/>
      <point x="22" y="261" type="curve" smooth="yes"/>
      <point x="22" y="233"/>
      <point x="25" y="206"/>
      <point x="32" y="181" type="curve" smooth="yes"/>
      <point x="60" y="67"/>
      <point x="151" y="-8"/>
      <point x="279" y="-8" type="curve" smooth="yes"/>
    </contour>
    <contour>
      <point x="259" y="153"/>
      <point x="243" y="161"/>
      <point x="232" y="177" type="curve" smooth="yes"/>
      <point x="218" y="195"/>
      <point x="211" y="224"/>
      <point x="211" y="262" type="curve" smooth="yes"/>
      <point x="211" y="296"/>
      <point x="217" y="323"/>
      <point x="229" y="341" type="curve" smooth="yes"/>
      <point x="241" y="358"/>
      <point x="258" y="367"/>
      <point x="279" y="367" type="curve" smooth="yes"/>
      <point x="301" y="367"/>
      <point x="318" y="357"/>
      <point x="330" y="339" type="curve" smooth="yes"/>
      <point x="341" y="321"/>
      <point x="347" y="295"/>
      <point x="347" y="262" type="curve" smooth="yes"/>
      <point x="347" y="227"/>
      <point x="341" y="199"/>
      <point x="329" y="181" type="curve" smooth="yes"/>
      <point x="318" y="163"/>
      <point x="301" y="153"/>
      <point x="279" y="153" type="curve" smooth="yes"/>
    </contour>
    <contour>
      <point x="279" y="528" type="move" name="top"/>
    </contour>
  </outline>
</glyph>
<glyph name="asciitilde" format="1">
  <advance width="557"/>
  <unicode hex="007E"/>
  <outline>
    <contour>
      <point x="437" y="180"/>
      <point x="514" y="231"/>
      <point x="535" y="305" type="curve"/>
      <point x="409" y="385" type="line"/>
      <point x="396" y="363"/>
      <point x="378" y="341"/>
      <point x="349" y="341" type="curve" smooth="yes"/>
      <point x="325" y="341"/>
      <point x="302" y="357"/>
      <point x="275" y="372" type="curve" smooth="yes"/>
      <point x="252" y="385"/>
      <point x="227" y="397"/>
      <point x="192" y="397" type="curve" smooth="yes"/>
      <point x="117" y="397"/>
      <point x="41" y="342"/>
      <point x="22" y="268" type="curve"/>
      <point x="133" y="192" type="line"/>
      <point x="149" y="218"/>
      <point x="169" y="236"/>
      <point x="199" y="236" type="curve" smooth="yes"/>
      <point x="231" y="236"/>
      <point x="264" y="215"/>
      <point x="285" y="203" type="curve" smooth="yes"/>
      <point x="306" y="191"/>
      <point x="330" y="180"/>
      <point x="364" y="180" type="curve" smooth="yes"/>
    </contour>
  </outline>
</glyph>
<glyph name="yen" format="1">
  <advance width="684"/>
  <unicode hex="00A5"/>
  <outline>
    <contour>
      <point x="574" y="230" type="line"/>
      <point x="574" y="331" type="line"/>
      <point x="118" y="331" type="line"/>
      <point x="118" y="230" type="line"/>
    </contour>
    <contour>
      <point x="574" y="89" type="line"/>
      <point x="574" y="190" type="line"/>
      <point x="118" y="190" type="line"/>
      <point x="118" y="89" type="line"/>
    </contour>
    <component base="Y" xOffset="21"/>
  </outline>
</glyph>
<glyph name="ordfeminine" format="1">
  <advance width="337"/>
  <unicode hex="00AA"/>
  <outline>
    <contour>
      <point x="311" y="361" type="line"/>
      <point x="311" y="594" type="line" smooth="yes"/>
      <point x="311" y="657"/>
      <point x="244" y="708"/>
      <point x="159" y="708" type="curve" smooth="yes"/>
      <point x="75" y="708"/>
      <point x="12" y="658"/>
      <point x="15" y="596" type="curve"/>
      <point x="112" y="588" type="line"/>
      <point x="111" y="608"/>
      <point x="133" y="623"/>
      <point x="161" y="623" type="curve" smooth="yes"/>
      <point x="190" y="623"/>
      <point x="213" y="605"/>
      <point x="213" y="577" type="curve" smooth="yes"/>
      <point x="213" y="361" type="line"/>
    </contour>
    <contour>
      <point x="209" y="355"/>
      <point x="241" y="397"/>
      <point x="241" y="473" type="curve"/>
      <point x="241" y="569" type="line"/>
      <point x="151" y="569" type="line"/>
      <point x="64" y="569"/>
      <point x="9" y="524"/>
      <point x="9" y="454" type="curve" smooth="yes"/>
      <point x="9" y="393"/>
      <point x="52" y="355"/>
      <point x="129" y="355" type="curve" smooth="yes"/>
    </contour>
    <contour>
      <point x="123" y="432"/>
      <point x="108" y="442"/>
      <point x="108" y="463" type="curve" smooth="yes"/>
      <point x="108" y="489"/>
      <point x="132" y="496"/>
      <point x="167" y="496" type="curve"/>
      <point x="213" y="496" type="line"/>
      <point x="213" y="482" type="line" smooth="yes"/>
      <point x="213" y="462"/>
      <point x="190" y="432"/>
      <point x="148" y="432" type="curve" smooth="yes"/>
    </contour>
    <component base="minus" xOffset="-7" yOffset="124" xScale="0.72" yScale="0.5"/>
  </outline>
</glyph>
<glyph name="logicalnot" format="1">
  <advance width="476"/>
  <unicode hex="00AC"/>
  <outline>
    <contour>
      <point x="454" y="105" type="line"/>
      <point x="454" y="251" type="line"/>
      <point x="294" y="251" type="line"/>
      <point x="294" y="105" type="line"/>
    </contour>
    <component base="minus"/>
  </outline>
</glyph>
<glyph name="registered" format="1">
  <advance width="440"/>
  <unicode hex="00AE"/>
  <outline>
    <contour>
      <point x="340" y="296"/>
      <point x="428" y="383"/>
      <point x="428" y="507" type="curve" smooth="yes"/>
      <point x="428" y="622"/>
      <point x="340" y="708"/>
      <point x="220" y="708" type="curve" smooth="yes"/>
      <point x="100" y="708"/>
      <point x="12" y="622"/>
      <point x="12" y="507" type="curve" smooth="yes"/>
      <point x="12" y="383"/>
      <point x="100" y="296"/>
      <point x="220" y="296" type="curve" smooth="yes"/>
    </contour>
    <contour>
      <point x="294" y="411" type="line"/>
      <point x="265" y="500" type="line"/>
      <point x="208" y="501" type="line"/>
      <point x="234" y="411" type="line"/>
    </contour>
    <contour>
      <point x="140" y="364"/>
      <point x="82" y="422"/>
      <point x="82" y="507" type="curve" smooth="yes"/>
      <point x="82" y="583"/>
      <point x="140" y="640"/>
      <point x="220" y="640" type="curve" smooth="yes"/>
      <point x="300" y="640"/>
      <point x="359" y="583"/>
      <point x="359" y="507" type="curve" smooth="yes"/>
      <point x="359" y="422"/>
      <point x="300" y="364"/>
      <point x="220" y="364" type="curve" smooth="yes"/>
    </contour>
    <contour>
      <point x="212" y="411" type="line"/>
      <point x="212" y="551" type="line"/>
      <point x="224" y="551" type="line" smooth="yes"/>
      <point x="233" y="551"/>
      <point x="239" y="545"/>
      <point x="239" y="536" type="curve" smooth="yes"/>
      <point x="239" y="528"/>
      <point x="233" y="520"/>
      <point x="224" y="520" type="curve" smooth="yes"/>
      <point x="209" y="520" type="line"/>
      <point x="209" y="478" type="line"/>
      <point x="233" y="478" type="line" smooth="yes"/>
      <point x="271" y="478"/>
      <point x="296" y="499"/>
      <point x="296" y="537" type="curve" smooth="yes"/>
      <point x="296" y="572"/>
      <point x="271" y="599"/>
      <point x="233" y="599" type="curve" smooth="yes"/>
      <point x="155" y="599" type="line"/>
      <point x="155" y="411" type="line"/>
    </contour>
  </outline>
</glyph>
<glyph name="AE" format="1">
  <advance width="986"/>
  <unicode hex="00C6"/>
  <outline>
    <contour>
      <point x="225" y="0" type="line"/>
      <point x="452" y="483" type="line"/>
      <point x="452" y="0" type="line"/>
      <point x="962" y="0" type="line"/>
      <point x="962" y="161" type="line"/>
      <point x="640" y="161" type="line"/>
      <point x="640" y="539" type="line"/>
      <point x="962" y="539" type="line"/>
      <point x="962" y="700" type="line"/>
      <point x="362" y="700" type="line"/>
      <point x="18" y="0" type="line"/>
    </contour>
    <contour>
      <point x="487" y="95" type="line"/>
      <point x="505" y="239" type="line"/>
      <point x="170" y="239" type="line"/>
      <point x="132" y="95" type="line"/>
    </contour>
    <contour>
      <point x="848" y="275" type="line"/>
      <point x="848" y="435" type="line"/>
      <point x="528" y="435" type="line"/>
      <point x="528" y="275" type="line"/>
    </contour>
  </outline>
</glyph>
<glyph name="germandbls" format="1">
  <advance width="624"/>
  <unicode hex="00DF"/>
  <outline>
    <contour>
      <point x="224" y="0" type="line"/>
      <point x="224" y="485" type="line"/>
      <point x="224" y="527"/>
      <point x="275" y="548"/>
      <point x="319" y="548" type="curve" smooth="yes"/>
      <point x="381" y="548"/>
      <point x="395" y="519"/>
      <point x="395" y="502" type="curve" smooth="yes"/>
      <point x="395" y="477"/>
      <point x="366" y="452"/>
      <point x="325" y="452" type="curve"/>
      <point x="265" y="452" type="line"/>
      <point x="265" y="306" type="line"/>
      <point x="320" y="306" type="line"/>
      <point x="374" y="306"/>
      <point x="409" y="279"/>
      <point x="409" y="233" type="curve" smooth="yes"/>
      <point x="409" y="187"/>
      <point x="374" y="160"/>
      <point x="320" y="160" type="curve"/>
      <point x="265" y="160" type="line"/>
      <point x="265" y="0" type="line"/>
      <point x="292" y="0" type="line"/>
      <point x="498" y="0"/>
      <point x="597" y="78"/>
      <point x="597" y="213" type="curve" smooth="yes"/>
      <point x="597" y="292"/>
      <point x="562" y="356"/>
      <point x="516" y="384" type="curve"/>
      <point x="567" y="416"/>
      <point x="583" y="459"/>
      <point x="583" y="507" type="curve" smooth="yes"/>
      <point x="583" y="632"/>
      <point x="472" y="708"/>
      <point x="304" y="708" type="curve" smooth="yes"/>
      <point x="133" y="708"/>
      <point x="36" y="619"/>
      <point x="36" y="467" type="curve"/>
      <point x="36" y="1" type="line"/>
    </contour>
  </outline>
</glyph>
<glyph name="eth" format="1">
  <advance width="561"/>
  <unicode hex="00F0"/>
  <outline>
    <contour>
      <point x="384" y="-8"/>
      <point x="471" y="49"/>
      <point x="508" y="129" type="curve" smooth="yes"/>
      <point x="520" y="155"/>
      <point x="528" y="189"/>
      <point x="528" y="228" type="curve" smooth="yes"/>
      <point x="528" y="279"/>
      <point x="522" y="328"/>
      <point x="510" y="373" type="curve" smooth="yes"/>
      <point x="487" y="463"/>
      <point x="433" y="551"/>
      <point x="320" y="700" type="curve"/>
      <point x="119" y="700" type="line"/>
      <point x="204" y="608"/>
      <point x="262" y="539"/>
      <point x="315" y="420" type="curve"/>
      <point x="325" y="422" type="line"/>
      <point x="313" y="463"/>
      <point x="169" y="446"/>
      <point x="119" y="415" type="curve" smooth="yes"/>
      <point x="84" y="393"/>
      <point x="57" y="362"/>
      <point x="40" y="325" type="curve" smooth="yes"/>
      <point x="27" y="296"/>
      <point x="20" y="263"/>
      <point x="20" y="227" type="curve" smooth="yes"/>
      <point x="20" y="192"/>
      <point x="26" y="160"/>
      <point x="40" y="129" type="curve" smooth="yes"/>
      <point x="78" y="45"/>
      <point x="166" y="-8"/>
      <point x="274" y="-8" type="curve" smooth="yes"/>
    </contour>
    <contour>
      <point x="252" y="132"/>
      <point x="234" y="145"/>
      <point x="223" y="167" type="curve" smooth="yes"/>
      <point x="215" y="183"/>
      <point x="210" y="199"/>
      <point x="210" y="222" type="curve" smooth="yes"/>
      <point x="210" y="243"/>
      <point x="214" y="258"/>
      <point x="222" y="274" type="curve" smooth="yes"/>
      <point x="233" y="296"/>
      <point x="252" y="307"/>
      <point x="274" y="307" type="curve" smooth="yes"/>
      <point x="296" y="307"/>
      <point x="313" y="296"/>
      <point x="325" y="274" type="curve" smooth="yes"/>
      <point x="333" y="259"/>
      <point x="338" y="243"/>
      <point x="338" y="222" type="curve" smooth="yes"/>
      <point x="338" y="199"/>
      <point x="333" y="182"/>
      <point x="325" y="167" type="curve" smooth="yes"/>
      <point x="313" y="145"/>
      <point x="296" y="132"/>
      <point x="274" y="132" type="curve" smooth="yes"/>
    </contour>
    <contour>
      <point x="498" y="561" type="line"/>
      <point x="474" y="658" type="line"/>
      <point x="126" y="572" type="line"/>
      <point x="150" y="475" type="line"/>
    </contour>
  </outline>
</glyph>
<glyph name="lslash" format="1">
  <advance width="260"/>
  <unicode hex="0142"/>
  <outline>
    <contour>
      <point x="388" y="401" type="line"/>
      <point x="322" y="521" type="line"/>
      <point x="-91" y="298" type="line"/>
      <point x="-29" y="179" type="line"/>
    </contour>
    <component base="l"/>
  </outline>
</glyph>
<glyph name="tildecomb" format="1">
  <advance width="373"/>
  <unicode hex="0303"/>
  <outline>
    <contour>
      <point x="282" y="562"/>
      <point x="328" y="590"/>
      <point x="354" y="654" type="curve"/>
      <point x="274" y="710" type="line"/>
      <point x="265" y="688"/>
      <point x="251" y="681"/>
      <point x="237" y="681" type="curve" smooth="yes"/>
      <point x="222" y="681"/>
      <point x="203" y="689"/>
      <point x="191" y="696" type="curve" smooth="yes"/>
      <point x="169" y="709"/>
      <point x="150" y="720"/>
      <point x="123" y="720" type="curve" smooth="yes"/>
      <point x="77" y="720"/>
      <point x="34" y="688"/>
      <point x="18" y="627" type="curve"/>
      <point x="96" y="571" type="line"/>
      <point x="106" y="592"/>
      <point x="116" y="601"/>
      <point x="136" y="601" type="curve" smooth="yes"/>
      <point x="145" y="601"/>
      <point x="153" y="599"/>
      <point x="172" y="587" type="curve" smooth="yes"/>
      <point x="189" y="576"/>
      <point x="211" y="562"/>
      <point x="241" y="562" type="curve" smooth="yes"/>
    </contour>
    <contour>
      <point x="171" y="520" type="move" name="_top"/>
    </contour>
  </outline>
</glyph>
<glyph name="commaaccentcomb" format="1">
  <advance width="274"/>
  <unicode hex="0326"/>
  <outline>
    <component base="acute" yOffset="-742"/>
    <contour>
      <point x="151" y="0" type="move" name="_bottom"/>
    </contour>
  </outline>
</glyph>
<glyph name="strokeshortcomb" format="1">
  <advance width="378"/>
  <unicode hex="0335"/>
  <outline>
    <contour>
      <point x="0" y="548" type="line"/>
      <point x="378" y="548" type="line"/>
      <point x="378" y="658" type="line"/>
      <point x="0" y="658" type="line"/>
    </contour>
    <contour>
      <point x="189" y="548" type="move" name="_shortstroke"/>
    </contour>
  </outline>
</glyph>
<glyph name="strokelongcomb" format="1">
  <advance width="654"/>
  <unicode hex="0336"/>
  <outline>
    <contour>
      <point x="654" y="505" type="line"/>
      <point x="654" y="630" type="line"/>
      <point x="0" y="630" type="line"/>
      <point x="0" y="505" type="line"/>
    </contour>
    <contour>
      <point x="327" y="505" type="move" name="_strokelong"/>
    </contour>
  </outline>
</glyph>
<glyph name="slashlongcomb" format="1">
  <advance width="476"/>
  <unicode hex="0338"/>
  <outline>
    <contour>
      <point x="89" y="-30" type="line"/>
      <point x="476" y="730" type="line"/>
      <point x="387" y="730" type="line"/>
      <point x="0" y="-30" type="line"/>
    </contour>
  </outline>
</glyph>
<glyph name="Omega" format="1">
  <advance width="630"/>
  <unicode hex="03A9"/>
  <outline>
    <contour>
      <point x="298" y="0" type="line"/>
      <point x="298" y="163" type="line"/>
      <point x="253" y="171"/>
      <point x="223" y="208"/>
      <point x="223" y="263" type="curve" smooth="yes"/>
      <point x="223" y="448" type="line" smooth="yes"/>
      <point x="223" y="509"/>
      <point x="260" y="549"/>
      <point x="315" y="549" type="curve" smooth="yes"/>
      <point x="371" y="549"/>
      <point x="408" y="509"/>
      <point x="408" y="448" type="curve" smooth="yes"/>
      <point x="408" y="263" type="line" smooth="yes"/>
      <point x="408" y="209"/>
      <point x="379" y="171"/>
      <point x="333" y="164" type="curve"/>
      <point x="333" y="0" type="line"/>
      <point x="600" y="0" type="line"/>
      <point x="600" y="161" type="line"/>
      <point x="563" y="161" type="line"/>
      <point x="584" y="199"/>
      <point x="596" y="244"/>
      <point x="596" y="296" type="curve" smooth="yes"/>
      <point x="596" y="444" type="line" smooth="yes"/>
      <point x="596" y="602"/>
      <point x="484" y="708"/>
      <point x="315" y="708" type="curve" smooth="yes"/>
      <point x="147" y="708"/>
      <point x="35" y="602"/>
      <point x="35" y="444" type="curve" smooth="yes"/>
      <point x="35" y="296" type="line" smooth="yes"/>
      <point x="35" y="244"/>
      <point x="47" y="199"/>
      <point x="68" y="161" type="curve"/>
      <point x="30" y="161" type="line"/>
      <point x="30" y="0" type="line"/>
    </contour>
  </outline>
</glyph>
<glyph name="pi" format="1">
  <advance width="673"/>
  <unicode hex="03C0"/>
  <outline>
    <contour>
      <point x="641" y="159" type="line"/>
      <point x="614" y="157"/>
      <point x="581" y="141"/>
      <point x="581" y="223" type="curve"/>
      <point x="581" y="520" type="line"/>
      <point x="393" y="520" type="line"/>
      <point x="393" y="116" type="line"/>
      <point x="390" y="-36"/>
      <point x="559" y="-1"/>
      <point x="641" y="0" type="curve"/>
    </contour>
    <contour>
      <point x="280" y="0" type="line"/>
      <point x="280" y="520" type="line"/>
      <point x="92" y="520" type="line"/>
      <point x="92" y="0" type="line"/>
    </contour>
    <contour>
      <point x="651" y="360" type="line"/>
      <point x="651" y="520" type="line"/>
      <point x="22" y="520" type="line"/>
      <point x="22" y="360" type="line"/>
    </contour>
  </outline>
</glyph>
<glyph name="endash" format="1">
  <advance width="494"/>
  <unicode hex="2013"/>
  <outline>
    <contour>
      <point x="472" y="204" type="line"/>
      <point x="472" y="365" type="line"/>
      <point x="22" y="365" type="line"/>
      <point x="22" y="204" type="line"/>
    </contour>
  </outline>
</glyph>
<glyph name="dagger" format="1">
  <advance width="444"/>
  <unicode hex="2020"/>
  <outline>
    <contour>
      <point x="316" y="-200" type="line"/>
      <point x="316" y="700" type="line"/>
      <point x="128" y="700" type="line"/>
      <point x="128" y="-200" type="line"/>
    </contour>
    <contour>
      <point x="422" y="320" type="line"/>
      <point x="422" y="460" type="line"/>
      <point x="22" y="460" type="line"/>
      <point x="22" y="320" type="line"/>
    </contour>
  </outline>
</glyph>
<glyph name="fraction" format="1">
  <advance width="212"/>
  <unicode hex="2044"/>
  <outline>
    <contour>
      <point x="-9" y="0" type="line"/>
      <point x="380" y="700" type="line"/>
      <point x="248" y="700" type="line"/>
      <point x="-142" y="0" type="line"/>
    </contour>
  </outline>
</glyph>
<glyph name="euro" format="1">
  <advance width="633"/>
  <unicode hex="20AC"/>
  <outline>
    <contour>
      <point x="496" y="-8"/>
      <point x="590" y="65"/>
      <point x="605" y="182" type="curve"/>
      <point x="419" y="215" type="line"/>
      <point x="417" y="178"/>
      <point x="393" y="153"/>
      <point x="358" y="153" type="curve" smooth="yes"/>
      <point x="322" y="153"/>
      <point x="297" y="181"/>
      <point x="297" y="222" type="curve" smooth="yes"/>
      <point x="297" y="477" type="line" smooth="yes"/>
      <point x="297" y="519"/>
      <point x="322" y="547"/>
      <point x="358" y="547" type="curve" smooth="yes"/>
      <point x="391" y="547"/>
      <point x="414" y="526"/>
      <point x="418" y="493" type="curve"/>
      <point x="606" y="515" type="line"/>
      <point x="593" y="635"/>
      <point x="498" y="708"/>
      <point x="358" y="708" type="curve" smooth="yes"/>
      <point x="208" y="708"/>
      <point x="109" y="617"/>
      <point x="109" y="472" type="curve" smooth="yes"/>
      <point x="109" y="230" type="line" smooth="yes"/>
      <point x="109" y="85"/>
      <point x="208" y="-8"/>
      <point x="358" y="-8" type="curve" smooth="yes"/>
    </contour>
    <contour>
      <point x="428" y="247" type="line"/>
      <point x="455" y="341" type="line"/>
      <point x="30" y="341" type="line"/>
      <point x="30" y="247" type="line"/>
    </contour>
    <contour>
      <point x="462" y="362" type="line"/>
      <point x="489" y="456" type="line"/>
      <point x="30" y="456" type="line"/>
      <point x="30" y="362" type="line"/>
    </contour>
    <contour>
      <point x="358" y="708" type="move" name="top"/>
    </contour>
  </outline>
</glyph>
<glyph name="partialdiff" format="1">
  <advance width="601"/>
  <unicode hex="2202"/>
  <outline>
    <contour>
      <point x="448" y="-8"/>
      <point x="549" y="109"/>
      <point x="563" y="275" type="curve" smooth="yes"/>
      <point x="572" y="384"/>
      <point x="546" y="526"/>
      <point x="465" y="616" type="curve" smooth="yes"/>
      <point x="414" y="673"/>
      <point x="347" y="702"/>
      <point x="267" y="704" type="curve" smooth="yes"/>
      <point x="204" y="706"/>
      <point x="134" y="691"/>
      <point x="54" y="655" type="curve"/>
      <point x="118" y="487" type="line"/>
      <point x="173" y="515"/>
      <point x="218" y="527"/>
      <point x="254" y="525" type="curve" smooth="yes"/>
      <point x="285" y="523"/>
      <point x="309" y="511"/>
      <point x="327" y="490" type="curve" smooth="yes"/>
      <point x="356" y="456"/>
      <point x="368" y="400"/>
      <point x="370" y="338" type="curve" smooth="yes"/>
      <point x="374" y="218"/>
      <point x="337" y="153"/>
      <point x="276" y="153" type="curve" smooth="yes"/>
      <point x="231" y="153"/>
      <point x="198" y="189"/>
      <point x="198" y="231" type="curve" smooth="yes"/>
      <point x="198" y="277"/>
      <point x="238" y="307"/>
      <point x="282" y="309" type="curve" smooth="yes"/>
      <point x="323" y="311"/>
      <point x="366" y="290"/>
      <point x="382" y="246" type="curve"/>
      <point x="513" y="311" type="line"/>
      <point x="484" y="397"/>
      <point x="376" y="454"/>
      <point x="266" y="458" type="curve" smooth="yes"/>
      <point x="138" y="462"/>
      <point x="10" y="393"/>
      <point x="10" y="225" type="curve" smooth="yes"/>
      <point x="10" y="73"/>
      <point x="114" y="-8"/>
      <point x="266" y="-8" type="curve" smooth="yes"/>
    </contour>
  </outline>
</glyph>
<glyph name="radical" format="1">
  <advance width="858"/>
  <unicode hex="221A"/>
  <outline>
    <contour>
      <point x="360" y="-200" type="line"/>
      <point x="581" y="637" type="line"/>
      <point x="825" y="637" type="line"/>
      <point x="825" y="798" type="line"/>
      <point x="437" y="798" type="line"/>
      <point x="255" y="101" type="line"/>
      <point x="188" y="291" type="line"/>
      <point x="12" y="233" type="line"/>
      <point x="176" y="-200" type="line"/>
    </contour>
  </outline>
</glyph>
<glyph name="ae.alt" format="1">
  <advance width="869"/>
  <outline>
    <contour>
      <point x="322" y="-8"/>
      <point x="395" y="34"/>
      <point x="421" y="83" type="curve"/>
      <point x="461" y="26"/>
      <point x="518" y="-8"/>
      <point x="599" y="-8" type="curve" smooth="yes"/>
      <point x="724" y="-8"/>
      <point x="821" y="51"/>
      <point x="842" y="160" type="curve"/>
      <point x="656" y="186" type="line"/>
      <point x="650" y="169"/>
      <point x="631" y="153"/>
      <point x="603" y="153" type="curve" smooth="yes"/>
      <point x="580" y="153"/>
      <point x="557" y="167"/>
      <point x="547" y="186" type="curve" smooth="yes"/>
      <point x="543" y="193"/>
      <point x="541" y="200"/>
      <point x="541" y="208" type="curve"/>
      <point x="852" y="208" type="line"/>
      <point x="852" y="312"/>
      <point x="852" y="328"/>
      <point x="833" y="376" type="curve" smooth="yes"/>
      <point x="794" y="477"/>
      <point x="702" y="528"/>
      <point x="600" y="528" type="curve" smooth="yes"/>
      <point x="524" y="528"/>
      <point x="461" y="494"/>
      <point x="428" y="448" type="curve"/>
      <point x="399" y="490"/>
      <point x="331" y="528"/>
      <point x="250" y="528" type="curve" smooth="yes"/>
      <point x="133" y="528"/>
      <point x="23" y="452"/>
      <point x="23" y="356" type="curve"/>
      <point x="211" y="332" type="line"/>
      <point x="212" y="352"/>
      <point x="235" y="367"/>
      <point x="267" y="367" type="curve" smooth="yes"/>
      <point x="302" y="367"/>
      <point x="324" y="348"/>
      <point x="324" y="320" type="curve" smooth="yes"/>
      <point x="324" y="305" type="line"/>
      <point x="226" y="305" type="line" smooth="yes"/>
      <point x="87" y="305"/>
      <point x="18" y="242"/>
      <point x="18" y="150" type="curve" smooth="yes"/>
      <point x="18" y="50"/>
      <point x="100" y="-8"/>
      <point x="220" y="-8" type="curve" smooth="yes"/>
    </contour>
    <contour>
      <point x="219" y="120"/>
      <point x="206" y="144"/>
      <point x="206" y="164" type="curve" smooth="yes"/>
      <point x="206" y="190"/>
      <point x="228" y="208"/>
      <point x="269" y="208" type="curve" smooth="yes"/>
      <point x="324" y="208" type="line"/>
      <point x="324" y="184" type="line" smooth="yes"/>
      <point x="324" y="147"/>
      <point x="291" y="120"/>
      <point x="254" y="120" type="curve" smooth="yes"/>
    </contour>
    <contour>
      <point x="542" y="317"/>
      <point x="545" y="328"/>
      <point x="550" y="338" type="curve" smooth="yes"/>
      <point x="559" y="356"/>
      <point x="573" y="367"/>
      <point x="599" y="367" type="curve" smooth="yes"/>
      <point x="621" y="367"/>
      <point x="637" y="358"/>
      <point x="648" y="337" type="curve" smooth="yes"/>
      <point x="651" y="331"/>
      <point x="657" y="314"/>
      <point x="659" y="305" type="curve"/>
      <point x="539" y="305" type="line"/>
    </contour>
  </outline>
</glyph>
<glyph name="b.bowl" format="1">
  <advance width="364"/>
  <outline>
    <contour>
      <point x="249" y="-8"/>
      <point x="332" y="58"/>
      <point x="359" y="150" type="curve" smooth="yes"/>
      <point x="370" y="187"/>
      <point x="374" y="225"/>
      <point x="374" y="262" type="curve" smooth="yes"/>
      <point x="374" y="306"/>
      <point x="368" y="349"/>
      <point x="352" y="390" type="curve" smooth="yes"/>
      <point x="321" y="470"/>
      <point x="249" y="528"/>
      <point x="167" y="528" type="curve" smooth="yes"/>
      <point x="37" y="528"/>
      <point x="11" y="438"/>
      <point x="4" y="327" type="curve" smooth="yes"/>
      <point x="2" y="303"/>
      <point x="1" y="293"/>
      <point x="1" y="266" type="curve" smooth="yes"/>
      <point x="1" y="237"/>
      <point x="4" y="218"/>
      <point x="6" y="192" type="curve" smooth="yes"/>
      <point x="14" y="101"/>
      <point x="38" y="-8"/>
      <point x="167" y="-8" type="curve"/>
    </contour>
    <contour>
      <point x="89" y="153"/>
      <point x="73" y="161"/>
      <point x="62" y="177" type="curve" smooth="yes"/>
      <point x="49" y="196"/>
      <point x="41" y="224"/>
      <point x="41" y="262" type="curve" smooth="yes"/>
      <point x="41" y="296"/>
      <point x="47" y="323"/>
      <point x="59" y="341" type="curve" smooth="yes"/>
      <point x="71" y="358"/>
      <point x="88" y="367"/>
      <point x="109" y="367" type="curve" smooth="yes"/>
      <point x="131" y="367"/>
      <point x="148" y="357"/>
      <point x="160" y="339" type="curve" smooth="yes"/>
      <point x="172" y="321"/>
      <point x="177" y="295"/>
      <point x="177" y="262" type="curve" smooth="yes"/>
      <point x="177" y="227"/>
      <point x="171" y="199"/>
      <point x="159" y="181" type="curve" smooth="yes"/>
      <point x="147" y="163"/>
      <point x="131" y="153"/>
      <point x="109" y="153" type="curve" smooth="yes"/>
    </contour>
  </outline>
</glyph>
<glyph name="b.sc" format="1">
  <advance width="527"/>
  <outline>
    <contour>
      <point x="275" y="0" type="line" smooth="yes"/>
      <point x="401" y="0"/>
      <point x="508" y="41"/>
      <point x="508" y="168" type="curve" smooth="yes"/>
      <point x="508" y="291"/>
      <point x="414" y="338"/>
      <point x="186" y="338" type="curve"/>
      <point x="21" y="336" type="line"/>
      <point x="21" y="0" type="line"/>
    </contour>
    <contour>
      <point x="209" y="213" type="line"/>
      <point x="292" y="213" type="line" smooth="yes"/>
      <point x="309" y="213"/>
      <point x="320" y="203"/>
      <point x="320" y="189" type="curve" smooth="yes"/>
      <point x="320" y="172"/>
      <point x="308" y="161"/>
      <point x="290" y="161" type="curve" smooth="yes"/>
      <point x="209" y="161" type="line"/>
    </contour>
    <contour>
      <point x="188" y="261" type="line" smooth="yes"/>
      <point x="390" y="259"/>
      <point x="498" y="285"/>
      <point x="498" y="410" type="curve" smooth="yes"/>
      <point x="498" y="541"/>
      <point x="414" y="578"/>
      <point x="267" y="578" type="curve"/>
      <point x="21" y="578" type="line"/>
      <point x="21" y="263" type="line"/>
    </contour>
    <contour>
      <point x="209" y="417" type="line"/>
      <point x="282" y="417" type="line"/>
      <point x="301" y="417"/>
      <point x="314" y="407"/>
      <point x="314" y="392" type="curve" smooth="yes"/>
      <point x="314" y="376"/>
      <point x="301" y="365"/>
      <point x="282" y="365" type="curve"/>
      <point x="209" y="365" type="line"/>
    </contour>
  </outline>
</glyph>
<glyph name="c.sc" format="1">
  <advance width="521"/>
  <outline>
    <contour>
      <point x="409" y="-7"/>
      <point x="507" y="84"/>
      <point x="507" y="221" type="curve" smooth="yes"/>
      <point x="507" y="229" type="line"/>
      <point x="319" y="239" type="line"/>
      <point x="319" y="228" type="line" smooth="yes"/>
      <point x="319" y="184"/>
      <point x="296" y="154"/>
      <point x="262" y="154" type="curve" smooth="yes"/>
      <point x="227" y="154"/>
      <point x="204" y="184"/>
      <point x="204" y="228" type="curve" smooth="yes"/>
      <point x="204" y="349" type="line" smooth="yes"/>
      <point x="204" y="394"/>
      <point x="227" y="424"/>
      <point x="262" y="424" type="curve" smooth="yes"/>
      <point x="296" y="424"/>
      <point x="319" y="394"/>
      <point x="319" y="349" type="curve" smooth="yes"/>
      <point x="319" y="338" type="line"/>
      <point x="507" y="350" type="line"/>
      <point x="507" y="359" type="line" smooth="yes"/>
      <point x="507" y="495"/>
      <point x="409" y="585"/>
      <point x="262" y="585" type="curve" smooth="yes"/>
      <point x="114" y="585"/>
      <point x="16" y="489"/>
      <point x="16" y="344" type="curve" smooth="yes"/>
      <point x="16" y="236" type="line" smooth="yes"/>
      <point x="16" y="90"/>
      <point x="114" y="-7"/>
      <point x="262" y="-7" type="curve" smooth="yes"/>
    </contour>
    <contour>
      <point x="262" y="585" type="move" name="top"/>
    </contour>
    <contour>
      <point x="248" y="-7" type="move" name="bottom"/>
    </contour>
  </outline>
</glyph>
<glyph name="d.sc" format="1">
  <advance width="529"/>
  <outline>
    <contour>
      <point x="260" y="0" type="line" smooth="yes"/>
      <point x="407" y="0"/>
      <point x="508" y="79"/>
      <point x="508" y="195" type="curve" smooth="yes"/>
      <point x="508" y="383" type="line" smooth="yes"/>
      <point x="508" y="499"/>
      <point x="407" y="578"/>
      <point x="260" y="578" type="curve" smooth="yes"/>
      <point x="21" y="578" type="line"/>
      <point x="21" y="0" type="line"/>
    </contour>
    <contour>
      <point x="209" y="417" type="line"/>
      <point x="266" y="417" type="line" smooth="yes"/>
      <point x="297" y="417"/>
      <point x="320" y="390"/>
      <point x="320" y="351" type="curve"/>
      <point x="320" y="227" type="line"/>
      <point x="318" y="188"/>
      <point x="295" y="161"/>
      <point x="267" y="161" type="curve" smooth="yes"/>
      <point x="209" y="161" type="line"/>
    </contour>
    <contour>
      <point x="247" y="582" type="move" name="top"/>
    </contour>
  </outline>
</glyph>
<glyph name="f.sc" format="1">
  <advance width="470"/>
  <outline>
    <contour>
      <point x="209" y="0" type="line"/>
      <point x="209" y="417" type="line"/>
      <point x="466" y="417" type="line"/>
      <point x="466" y="578" type="line"/>
      <point x="21" y="578" type="line"/>
      <point x="21" y="0" type="line"/>
    </contour>
    <contour>
      <point x="369" y="214" type="line"/>
      <point x="369" y="374" type="line"/>
      <point x="97" y="374" type="line"/>
      <point x="97" y="214" type="line"/>
    </contour>
  </outline>
</glyph>
<glyph name="f_f_i.liga" format="1">
  <advance width="1002"/>
  <outline>
    <contour>
      <point x="279" y="0" type="line"/>
      <point x="279" y="539" type="line" smooth="yes"/>
      <point x="279" y="562"/>
      <point x="289" y="572"/>
      <point x="316" y="575" type="curve"/>
      <point x="373" y="575" type="line"/>
      <point x="373" y="700" type="line"/>
      <point x="316" y="700" type="line"/>
      <point x="154" y="708"/>
      <point x="91" y="668"/>
      <point x="91" y="556" type="curve" smooth="yes"/>
      <point x="91" y="0" type="line"/>
    </contour>
    <contour>
      <point x="417" y="370" type="line"/>
      <point x="417" y="520" type="line"/>
      <point x="20" y="520" type="line"/>
      <point x="20" y="370" type="line"/>
    </contour>
    <contour>
      <point x="616" y="0" type="line"/>
      <point x="616" y="539" type="line" smooth="yes"/>
      <point x="616" y="562"/>
      <point x="626" y="572"/>
      <point x="653" y="575" type="curve"/>
      <point x="710" y="575" type="line"/>
      <point x="710" y="700" type="line"/>
      <point x="653" y="700" type="line"/>
      <point x="491" y="708"/>
      <point x="428" y="668"/>
      <point x="428" y="556" type="curve" smooth="yes"/>
      <point x="428" y="0" type="line"/>
    </contour>
    <contour>
      <point x="724" y="370" type="line"/>
      <point x="724" y="520" type="line"/>
      <point x="257" y="520" type="line"/>
      <point x="257" y="370" type="line"/>
    </contour>
    <contour>
      <point x="961" y="0" type="line"/>
      <point x="961" y="520" type="line"/>
      <point x="773" y="520" type="line"/>
      <point x="773" y="0" type="line"/>
    </contour>
    <contour>
      <point x="932" y="536"/>
      <point x="975" y="578"/>
      <point x="975" y="641" type="curve" smooth="yes"/>
      <point x="975" y="704"/>
      <point x="932" y="746"/>
      <point x="867" y="746" type="curve" smooth="yes"/>
      <point x="803" y="746"/>
      <point x="759" y="704"/>
      <point x="759" y="641" type="curve" smooth="yes"/>
      <point x="759" y="578"/>
      <point x="803" y="536"/>
      <point x="867" y="536" type="curve" smooth="yes"/>
    </contour>
  </outline>
</glyph>
<glyph name="f_f_l.liga" format="1">
  <advance width="990"/>
  <outline>
    <contour>
      <point x="279" y="0" type="line"/>
      <point x="279" y="539" type="line" smooth="yes"/>
      <point x="279" y="562"/>
      <point x="289" y="572"/>
      <point x="316" y="575" type="curve"/>
      <point x="373" y="575" type="line"/>
      <point x="373" y="700" type="line"/>
      <point x="316" y="700" type="line"/>
      <point x="154" y="708"/>
      <point x="91" y="668"/>
      <point x="91" y="556" type="curve" smooth="yes"/>
      <point x="91" y="0" type="line"/>
    </contour>
    <contour>
      <point x="487" y="370" type="line"/>
      <point x="487" y="520" type="line"/>
      <point x="20" y="520" type="line"/>
      <point x="20" y="370" type="line"/>
    </contour>
    <contour>
      <point x="616" y="0" type="line"/>
      <point x="616" y="539" type="line" smooth="yes"/>
      <point x="616" y="562"/>
      <point x="626" y="572"/>
      <point x="653" y="575" type="curve"/>
      <point x="710" y="575" type="line"/>
      <point x="710" y="700" type="line"/>
      <point x="653" y="700" type="line"/>
      <point x="491" y="708"/>
      <point x="428" y="668"/>
      <point x="428" y="556" type="curve" smooth="yes"/>
      <point x="428" y="0" type="line"/>
    </contour>
    <contour>
      <point x="724" y="370" type="line"/>
      <point x="724" y="520" type="line"/>
      <point x="257" y="520" type="line"/>
      <point x="257" y="370" type="line"/>
    </contour>
    <contour>
      <point x="954" y="0" type="line"/>
      <point x="954" y="700" type="line"/>
      <point x="766" y="700" type="line"/>
      <point x="766" y="0" type="line"/>
    </contour>
    <contour>
      <point x="861" y="700" type="move" name="top"/>
    </contour>
  </outline>
</glyph>
<glyph name="h.sc" format="1">
  <advance width="513"/>
  <outline>
    <contour>
      <point x="502" y="0" type="line"/>
      <point x="502" y="578" type="line"/>
      <point x="314" y="578" type="line"/>
      <point x="314" y="0" type="line"/>
    </contour>
    <contour>
      <point x="209" y="0" type="line"/>
      <point x="209" y="578" type="line"/>
      <point x="21" y="578" type="line"/>
      <point x="21" y="0" type="line"/>
    </contour>
    <contour>
      <point x="383" y="213" type="line"/>
      <point x="383" y="374" type="line"/>
      <point x="142" y="374" type="line"/>
      <point x="142" y="213" type="line"/>
    </contour>
    <contour>
      <point x="262" y="418" type="move" name="strokelong"/>
    </contour>
  </outline>
</glyph>
<glyph name="k.sc" format="1">
  <advance width="550"/>
  <outline>
    <contour>
      <point x="209" y="0" type="line"/>
      <point x="209" y="138" type="line"/>
      <point x="239" y="195" type="line"/>
      <point x="340" y="0" type="line"/>
      <point x="546" y="0" type="line"/>
      <point x="367" y="323" type="line"/>
      <point x="544" y="578" type="line"/>
      <point x="338" y="578" type="line"/>
      <point x="209" y="373" type="line"/>
      <point x="209" y="578" type="line"/>
      <point x="21" y="578" type="line"/>
      <point x="21" y="0" type="line"/>
    </contour>
    <contour>
      <point x="259" y="0" type="move" name="bottom"/>
    </contour>
  </outline>
</glyph>
<glyph name="l.sc" format="1">
  <advance width="492"/>
  <outline>
    <contour>
      <point x="481" y="0" type="line"/>
      <point x="481" y="161" type="line"/>
      <point x="209" y="161" type="line"/>
      <point x="209" y="578" type="line"/>
      <point x="21" y="578" type="line"/>
      <point x="21" y="0" type="line"/>
    </contour>
    <contour>
      <point x="114" y="578" type="move" name="top"/>
    </contour>
    <contour>
      <point x="232" y="0" type="move" name="bottom"/>
    </contour>
  </outline>
</glyph>
<glyph name="r.sc" format="1">
  <advance width="512"/>
  <outline>
    <contour>
      <point x="209" y="0" type="line"/>
      <point x="209" y="417" type="line"/>
      <point x="267" y="417" type="line" smooth="yes"/>
      <point x="293" y="417"/>
      <point x="311" y="401"/>
      <point x="311" y="377" type="curve" smooth="yes"/>
      <point x="311" y="352"/>
      <point x="293" y="336"/>
      <point x="267" y="336" type="curve" smooth="yes"/>
      <point x="192" y="336" type="line"/>
      <point x="192" y="193" type="line"/>
      <point x="294" y="193" type="line" smooth="yes"/>
      <point x="416" y="193"/>
      <point x="498" y="270"/>
      <point x="498" y="385" type="curve" smooth="yes"/>
      <point x="498" y="501"/>
      <point x="416" y="578"/>
      <point x="294" y="578" type="curve" smooth="yes"/>
      <point x="21" y="578" type="line"/>
      <point x="21" y="0" type="line"/>
    </contour>
    <contour>
      <point x="506" y="0" type="line"/>
      <point x="363" y="273" type="line"/>
      <point x="178" y="274" type="line"/>
      <point x="305" y="0" type="line"/>
    </contour>
    <contour>
      <point x="234" y="578" type="move" name="top"/>
    </contour>
    <contour>
      <point x="245" y="0" type="move" name="bottom"/>
    </contour>
  </outline>
</glyph>
<glyph name="thorn.sc" format="1">
  <advance width="509"/>
  <outline>
    <contour>
      <point x="207" y="0" type="line"/>
      <point x="207" y="578" type="line"/>
      <point x="19" y="578" type="line"/>
      <point x="19" y="0" type="line"/>
    </contour>
    <contour>
      <point x="276" y="97" type="line" smooth="yes"/>
      <point x="409" y="97"/>
      <point x="498" y="173"/>
      <point x="498" y="287" type="curve" smooth="yes"/>
      <point x="498" y="403"/>
      <point x="413" y="481"/>
      <point x="285" y="481" type="curve" smooth="yes"/>
      <point x="207" y="481" type="line"/>
      <point x="207" y="321" type="line"/>
      <point x="274" y="321" type="line" smooth="yes"/>
      <point x="296" y="321"/>
      <point x="311" y="306"/>
      <point x="311" y="283" type="curve" smooth="yes"/>
      <point x="311" y="261"/>
      <point x="296" y="247"/>
      <point x="274" y="247" type="curve" smooth="yes"/>
      <point x="207" y="247" type="line"/>
      <point x="207" y="97" type="line"/>
    </contour>
  </outline>
</glyph>
<glyph name="u.sc" format="1">
  <advance width="521"/>
  <outline>
    <contour>
      <point x="406" y="-7"/>
      <point x="503" y="87"/>
      <point x="503" y="228" type="curve" smooth="yes"/>
      <point x="503" y="578" type="line"/>
      <point x="315" y="578" type="line"/>
      <point x="315" y="229" type="line" smooth="yes"/>
      <point x="315" y="184"/>
      <point x="293" y="154"/>
      <point x="262" y="154" type="curve" smooth="yes"/>
      <point x="228" y="154"/>
      <point x="206" y="184"/>
      <point x="206" y="229" type="curve" smooth="yes"/>
      <point x="206" y="578" type="line"/>
      <point x="18" y="578" type="line"/>
      <point x="18" y="228" type="line" smooth="yes"/>
      <point x="18" y="87"/>
      <point x="116" y="-7"/>
      <point x="262" y="-7" type="curve" smooth="yes"/>
    </contour>
    <contour>
      <point x="262" y="589" type="move" name="top"/>
    </contour>
    <contour>
      <point x="261" y="0" type="move" name="bottom"/>
    </contour>
  </outline>
</glyph>
<glyph name="w.sc" format="1">
  <advance width="768"/>
  <outline>
    <contour>
      <point x="343" y="0" type="line"/>
      <point x="384" y="249" type="line"/>
      <point x="437" y="0" type="line"/>
      <point x="622" y="0" type="line"/>
      <point x="757" y="578" type="line"/>
      <point x="565" y="578" type="line"/>
      <point x="522" y="308" type="line"/>
      <point x="482" y="578" type="line"/>
      <point x="290" y="578" type="line"/>
      <point x="254" y="308" type="line"/>
      <point x="212" y="578" type="line"/>
      <point x="11" y="578" type="line"/>
      <point x="169" y="0" type="line"/>
    </contour>
    <contour>
      <point x="384" y="578" type="move" name="top"/>
    </contour>
  </outline>
</glyph>
<glyph name="z.sc" format="1">
  <advance width="484"/>
  <outline>
    <contour>
      <point x="467" y="0" type="line"/>
      <point x="467" y="161" type="line"/>
      <point x="221" y="161" type="line"/>
      <point x="467" y="408" type="line"/>
      <point x="467" y="578" type="line"/>
      <point x="15" y="578" type="line"/>
      <point x="15" y="417" type="line"/>
      <point x="258" y="417" type="line"/>
      <point x="15" y="170" type="line"/>
      <point x="15" y="0" type="line"/>
    </contour>
    <contour>
      <point x="246" y="589" type="move" name="top"/>
    </contour>
  </outline>
</glyph>
